<svg xmlns="http://www.w3.org/2000/svg" width="600" height="400" viewBox="0 0 600 400" role="img">

  <defs>
    <linearGradient id="g1" x1="0%" y1="0%" x2="100%" y2="100%">
      <stop offset="0%" style="stop-color:#00e5ff;stop-opacity:0.15"/>
      <stop offset="100%" style="stop-color:#7c3aed;stop-opacity:0.15"/>
    </linearGradient>
  </defs>
  <rect width="600" height="400" fill="#0d1117"/>
  <rect width="600" height="400" fill="url(#g1)"/>
  <!-- Grid lines -->
  <g stroke="#00e5ff" stroke-width="0.5" opacity="0.15">
    <line x1="0" y1="80" x2="600" y2="80"/>
    <line x1="0" y1="160" x2="600" y2="160"/>
    <line x1="0" y1="240" x2="600" y2="240"/>
    <line x1="0" y1="320" x2="600" y2="320"/>
    <line x1="100" y1="0" x2="100" y2="400"/>
    <line x1="200" y1="0" x2="200" y2="400"/>
    <line x1="300" y1="0" x2="300" y2="400"/>
    <line x1="400" y1="0" x2="400" y2="400"/>
    <line x1="500" y1="0" x2="500" y2="400"/>
  </g>
  <!-- Browser window mockup -->
  <rect x="80" y="60" width="440" height="280" rx="10" fill="#161b22" stroke="#30363d" stroke-width="1.5"/>
  <rect x="80" y="60" width="440" height="36" rx="10" fill="#21262d"/>
  <rect x="80" y="84" width="440" height="12" fill="#21262d"/>
  <circle cx="104" cy="78" r="6" fill="#f87171"/>
  <circle cx="124" cy="78" r="6" fill="#fbbf24"/>
  <circle cx="144" cy="78" r="6" fill="#4ade80"/>
  <!-- URL bar -->
  <rect x="165" y="68" width="260" height="20" rx="4" fill="#0d1117" opacity="0.8"/>
  <text x="295" y="82" font-family="monospace" font-size="10" fill="#00e5ff" text-anchor="middle">nexacore.io</text>
  <!-- Content blocks -->
  <rect x="100" y="116" width="200" height="14" rx="3" fill="#00e5ff" opacity="0.7"/>
  <rect x="100" y="140" width="160" height="10" rx="3" fill="#8b949e" opacity="0.6"/>
  <rect x="100" y="158" width="180" height="10" rx="3" fill="#8b949e" opacity="0.4"/>
  <rect x="100" y="188" width="90" height="28" rx="5" fill="#00e5ff" opacity="0.9"/>
  <rect x="202" y="188" width="90" height="28" rx="5" fill="none" stroke="#00e5ff" stroke-width="1.5" opacity="0.6"/>
  <!-- Stats row -->
  <rect x="100" y="236" width="60" height="40" rx="6" fill="#21262d"/>
  <rect x="176" y="236" width="60" height="40" rx="6" fill="#21262d"/>
  <rect x="252" y="236" width="60" height="40" rx="6" fill="#21262d"/>
  <!-- Floating code snippet -->
  <rect x="340" y="110" width="160" height="120" rx="8" fill="#161b22" stroke="#00e5ff" stroke-width="1" opacity="0.9"/>
  <rect x="340" y="110" width="160" height="22" rx="8" fill="#21262d"/>
  <rect x="340" y="120" width="160" height="12" fill="#21262d"/>
  <circle cx="354" cy="121" r="4" fill="#f87171"/>
  <circle cx="368" cy="121" r="4" fill="#fbbf24"/>
  <circle cx="382" cy="121" r="4" fill="#4ade80"/>
  <text x="354" y="152" font-family="monospace" font-size="9" fill="#7ee787">&lt;main role="main"&gt;</text>
  <text x="360" y="166" font-family="monospace" font-size="9" fill="#79c0ff">  &lt;section&gt;</text>
  <text x="366" y="180" font-family="monospace" font-size="9" fill="#ffa657">    &lt;h1&gt;</text>
  <text x="366" y="194" font-family="monospace" font-size="9" fill="#e6edf3">      Build What</text>
  <text x="366" y="208" font-family="monospace" font-size="9" fill="#ffa657">    &lt;/h1&gt;</text>
  <text x="360" y="222" font-family="monospace" font-size="9" fill="#79c0ff">  &lt;/section&gt;</text>

</svg>