<svg xmlns="http://www.w3.org/2000/svg" width="600" height="380" viewBox="0 0 600 380" role="img">

  <defs>
    <linearGradient id="g3" x1="0%" y1="0%" x2="100%" y2="100%">
      <stop offset="0%" style="stop-color:#0ea5e9;stop-opacity:0.12"/>
      <stop offset="100%" style="stop-color:#7c3aed;stop-opacity:0.12"/>
    </linearGradient>
  </defs>
  <rect width="600" height="380" fill="#0d1117"/>
  <rect width="600" height="380" fill="url(#g3)"/>
  <!-- 4 service icons in a grid -->
  <!-- Web Dev -->
  <rect x="60" y="60" width="200" height="120" rx="10" fill="#161b22" stroke="#00e5ff" stroke-width="1.5"/>
  <rect x="80" y="76" width="160" height="10" rx="2" fill="#30363d"/>
  <rect x="80" y="92" width="120" height="8" rx="2" fill="#30363d" opacity="0.6"/>
  <rect x="80" y="106" width="100" height="8" rx="2" fill="#30363d" opacity="0.4"/>
  <rect x="80" y="124" width="70" height="22" rx="4" fill="#00e5ff" opacity="0.8"/>
  <text x="160" y="170" font-family="sans-serif" font-size="12" fill="#8b949e" text-anchor="middle">Web Development</text>
  <!-- Cloud -->
  <rect x="340" y="60" width="200" height="120" rx="10" fill="#161b22" stroke="#a855f7" stroke-width="1.5"/>
  <ellipse cx="420" cy="110" rx="30" ry="20" fill="none" stroke="#a855f7" stroke-width="2"/>
  <ellipse cx="445" cy="115" rx="22" ry="16" fill="none" stroke="#a855f7" stroke-width="1.5"/>
  <line x1="400" y1="130" x2="400" y2="155" stroke="#a855f7" stroke-width="1.5" stroke-dasharray="4 3"/>
  <line x1="420" y1="130" x2="420" y2="155" stroke="#a855f7" stroke-width="1.5" stroke-dasharray="4 3"/>
  <line x1="440" y1="130" x2="440" y2="155" stroke="#a855f7" stroke-width="1.5" stroke-dasharray="4 3"/>
  <text x="440" y="170" font-family="sans-serif" font-size="12" fill="#8b949e" text-anchor="middle">Cloud Architecture</text>
  <!-- Strategy -->
  <rect x="60" y="220" width="200" height="120" rx="10" fill="#161b22" stroke="#fbbf24" stroke-width="1.5"/>
  <polyline points="80,310 120,270 150,285 190,250 220,260" fill="none" stroke="#fbbf24" stroke-width="2"/>
  <circle cx="120" cy="270" r="4" fill="#fbbf24"/>
  <circle cx="150" cy="285" r="4" fill="#fbbf24"/>
  <circle cx="190" cy="250" r="4" fill="#fbbf24"/>
  <text x="160" y="330" font-family="sans-serif" font-size="12" fill="#8b949e" text-anchor="middle">Digital Strategy</text>
  <!-- UI/UX -->
  <rect x="340" y="220" width="200" height="120" rx="10" fill="#161b22" stroke="#4ade80" stroke-width="1.5"/>
  <rect x="360" y="236" width="160" height="12" rx="3" fill="#21262d"/>
  <rect x="360" y="254" width="50" height="60" rx="4" fill="#21262d"/>
  <rect x="418" y="254" width="100" height="25" rx="4" fill="#21262d"/>
  <rect x="418" y="286" width="60" height="28" rx="4" fill="#4ade80" opacity="0.7"/>
  <text x="440" y="330" font-family="sans-serif" font-size="12" fill="#8b949e" text-anchor="middle">UI/UX Design</text>

</svg>