<svg xmlns="http://www.w3.org/2000/svg" width="600" height="360" viewBox="0 0 600 360" role="img">

  <defs>
    <linearGradient id="g2" x1="0%" y1="0%" x2="100%" y2="100%">
      <stop offset="0%" style="stop-color:#00e5ff;stop-opacity:0.1"/>
      <stop offset="100%" style="stop-color:#a855f7;stop-opacity:0.1"/>
    </linearGradient>
  </defs>
  <rect width="600" height="360" fill="#0d1117"/>
  <rect width="600" height="360" fill="url(#g2)"/>
  <!-- Team avatars -->
  <circle cx="150" cy="130" r="50" fill="#21262d" stroke="#00e5ff" stroke-width="2"/>
  <circle cx="150" cy="110" r="20" fill="#30363d"/>
  <path d="M110 175 Q150 145 190 175" fill="#30363d"/>
  <circle cx="300" cy="120" r="55" fill="#21262d" stroke="#a855f7" stroke-width="2"/>
  <circle cx="300" cy="98" r="22" fill="#30363d"/>
  <path d="M258 168 Q300 136 342 168" fill="#30363d"/>
  <circle cx="450" cy="130" r="50" fill="#21262d" stroke="#4ade80" stroke-width="2"/>
  <circle cx="450" cy="110" r="20" fill="#30363d"/>
  <path d="M410 175 Q450 145 490 175" fill="#30363d"/>
  <!-- Connecting lines -->
  <line x1="200" y1="130" x2="245" y2="125" stroke="#00e5ff" stroke-width="1.5" stroke-dasharray="5 3" opacity="0.5"/>
  <line x1="355" y1="125" x2="400" y2="130" stroke="#a855f7" stroke-width="1.5" stroke-dasharray="5 3" opacity="0.5"/>
  <!-- Labels -->
  <text x="150" y="205" font-family="sans-serif" font-size="12" fill="#8b949e" text-anchor="middle">Engineer</text>
  <text x="300" y="200" font-family="sans-serif" font-size="12" fill="#8b949e" text-anchor="middle">Designer</text>
  <text x="450" y="205" font-family="sans-serif" font-size="12" fill="#8b949e" text-anchor="middle">Strategist</text>
  <!-- Stats bar -->
  <rect x="60" y="240" width="480" height="80" rx="10" fill="#161b22" stroke="#30363d" stroke-width="1"/>
  <text x="150" y="268" font-family="sans-serif" font-size="22" font-weight="bold" fill="#00e5ff" text-anchor="middle">150+</text>
  <text x="150" y="288" font-family="sans-serif" font-size="11" fill="#8b949e" text-anchor="middle">Projects</text>
  <line x1="250" y1="250" x2="250" y2="310" stroke="#30363d" stroke-width="1"/>
  <text x="300" y="268" font-family="sans-serif" font-size="22" font-weight="bold" fill="#a855f7" text-anchor="middle">98%</text>
  <text x="300" y="288" font-family="sans-serif" font-size="11" fill="#8b949e" text-anchor="middle">Satisfaction</text>
  <line x1="350" y1="250" x2="350" y2="310" stroke="#30363d" stroke-width="1"/>
  <text x="450" y="268" font-family="sans-serif" font-size="22" font-weight="bold" fill="#4ade80" text-anchor="middle">12 yrs</text>
  <text x="450" y="288" font-family="sans-serif" font-size="11" fill="#8b949e" text-anchor="middle">Experience</text>

</svg>